<svg width="217" height="35" viewBox="0 0 217 35" fill="none" xmlns="http://www.w3.org/2000/svg">
<path d="M5.9 25.19L0.14 18.65L5.9 12.08H13.28L7.52 18.65L13.28 25.19H5.9ZM15.6924 18.38C15.6924 16.3 16.1224 14.45 16.9824 12.83C17.8624 11.19 19.1024 9.92 20.7024 9.02C22.3024 8.1 24.1424 7.64 26.2224 7.64C28.8624 7.64 31.0824 8.35 32.8824 9.77C34.6824 11.17 35.8424 13.08 36.3624 15.5H30.0324C29.6524 14.7 29.1224 14.09 28.4424 13.67C27.7824 13.25 27.0124 13.04 26.1324 13.04C24.7724 13.04 23.6824 13.53 22.8624 14.51C22.0624 15.47 21.6624 16.76 21.6624 18.38C21.6624 20.02 22.0624 21.33 22.8624 22.31C23.6824 23.27 24.7724 23.75 26.1324 23.75C27.0124 23.75 27.7824 23.54 28.4424 23.12C29.1224 22.7 29.6524 22.09 30.0324 21.29H36.3624C35.8424 23.71 34.6824 25.63 32.8824 27.05C31.0824 28.45 28.8624 29.15 26.2224 29.15C24.1424 29.15 22.3024 28.7 20.7024 27.8C19.1024 26.88 17.8624 25.61 16.9824 23.99C16.1224 22.35 15.6924 20.48 15.6924 18.38ZM46.9768 29.21C45.2968 29.21 43.7868 28.86 42.4468 28.16C41.1268 27.46 40.0868 26.46 39.3268 25.16C38.5668 23.86 38.1868 22.33 38.1868 20.57C38.1868 18.83 38.5668 17.31 39.3268 16.01C40.1068 14.71 41.1568 13.71 42.4768 13.01C43.8168 12.31 45.3268 11.96 47.0068 11.96C48.6868 11.96 50.1868 12.31 51.5068 13.01C52.8468 13.71 53.8968 14.71 54.6568 16.01C55.4368 17.31 55.8268 18.83 55.8268 20.57C55.8268 22.31 55.4368 23.84 54.6568 25.16C53.8968 26.46 52.8468 27.46 51.5068 28.16C50.1668 28.86 48.6568 29.21 46.9768 29.21ZM46.9768 24.11C47.7968 24.11 48.4768 23.81 49.0168 23.21C49.5768 22.59 49.8568 21.71 49.8568 20.57C49.8568 19.43 49.5768 18.56 49.0168 17.96C48.4768 17.36 47.8068 17.06 47.0068 17.06C46.2068 17.06 45.5368 17.36 44.9968 17.96C44.4568 18.56 44.1868 19.43 44.1868 20.57C44.1868 21.73 44.4468 22.61 44.9668 23.21C45.4868 23.81 46.1568 24.11 46.9768 24.11ZM57.2591 20.57C57.2591 18.83 57.5691 17.31 58.1891 16.01C58.8291 14.71 59.6991 13.71 60.7991 13.01C61.8991 12.31 63.1191 11.96 64.4591 11.96C65.5391 11.96 66.4991 12.19 67.3391 12.65C68.1991 13.09 68.8691 13.7 69.3491 14.48V6.8H75.2591V29H69.3491V26.66C68.8891 27.44 68.2391 28.06 67.3991 28.52C66.5591 28.98 65.5691 29.21 64.4291 29.21C63.0891 29.21 61.8691 28.86 60.7691 28.16C59.6891 27.46 58.8291 26.46 58.1891 25.16C57.5691 23.84 57.2591 22.31 57.2591 20.57ZM69.3791 20.57C69.3791 19.49 69.0791 18.64 68.4791 18.02C67.8991 17.4 67.1791 17.09 66.3191 17.09C65.4391 17.09 64.7091 17.4 64.1291 18.02C63.5491 18.62 63.2591 19.47 63.2591 20.57C63.2591 21.65 63.5491 22.51 64.1291 23.15C64.7091 23.77 65.4391 24.08 66.3191 24.08C67.1791 24.08 67.8991 23.77 68.4791 23.15C69.0791 22.53 69.3791 21.67 69.3791 20.57ZM94.6897 20.39C94.6897 20.85 94.6597 21.31 94.5997 21.77H83.4697C83.5297 22.69 83.7797 23.38 84.2197 23.84C84.6797 24.28 85.2597 24.5 85.9597 24.5C86.9397 24.5 87.6397 24.06 88.0597 23.18H94.3297C94.0697 24.34 93.5597 25.38 92.7997 26.3C92.0597 27.2 91.1197 27.91 89.9797 28.43C88.8397 28.95 87.5797 29.21 86.1997 29.21C84.5397 29.21 83.0597 28.86 81.7597 28.16C80.4797 27.46 79.4697 26.46 78.7297 25.16C78.0097 23.86 77.6497 22.33 77.6497 20.57C77.6497 18.81 78.0097 17.29 78.7297 16.01C79.4497 14.71 80.4497 13.71 81.7297 13.01C83.0297 12.31 84.5197 11.96 86.1997 11.96C87.8597 11.96 89.3297 12.3 90.6097 12.98C91.8897 13.66 92.8897 14.64 93.6097 15.92C94.3297 17.18 94.6897 18.67 94.6897 20.39ZM88.6897 18.92C88.6897 18.2 88.4497 17.64 87.9697 17.24C87.4897 16.82 86.8897 16.61 86.1697 16.61C85.4497 16.61 84.8597 16.81 84.3997 17.21C83.9397 17.59 83.6397 18.16 83.4997 18.92H88.6897ZM102.976 15.14C103.636 14.18 104.436 13.42 105.376 12.86C106.316 12.3 107.326 12.02 108.406 12.02V18.29H106.756C105.476 18.29 104.526 18.54 103.906 19.04C103.286 19.54 102.976 20.41 102.976 21.65V29H97.096V12.17H102.976V15.14ZM130.746 32.54L128.406 29.03C127.746 29.15 127.076 29.21 126.396 29.21C124.416 29.21 122.596 28.75 120.936 27.83C119.276 26.89 117.956 25.6 116.976 23.96C116.016 22.3 115.536 20.43 115.536 18.35C115.536 16.27 116.016 14.41 116.976 12.77C117.956 11.11 119.276 9.82 120.936 8.9C122.596 7.98 124.416 7.52 126.396 7.52C128.396 7.52 130.216 7.98 131.856 8.9C133.516 9.82 134.826 11.11 135.786 12.77C136.746 14.41 137.226 16.27 137.226 18.35C137.226 20.09 136.876 21.7 136.176 23.18C135.476 24.64 134.516 25.86 133.296 26.84L137.766 32.54H130.746ZM121.536 18.35C121.536 20.01 121.966 21.33 122.826 22.31C123.686 23.27 124.876 23.75 126.396 23.75C127.896 23.75 129.076 23.26 129.936 22.28C130.816 21.3 131.256 19.99 131.256 18.35C131.256 16.67 130.816 15.35 129.936 14.39C129.076 13.41 127.896 12.92 126.396 12.92C124.876 12.92 123.686 13.41 122.826 14.39C121.966 15.35 121.536 16.67 121.536 18.35ZM157.119 12.17V29H151.209V26.6C150.709 27.36 150.019 27.98 149.139 28.46C148.259 28.92 147.249 29.15 146.109 29.15C144.149 29.15 142.599 28.51 141.459 27.23C140.339 25.93 139.779 24.17 139.779 21.95V12.17H145.629V21.2C145.629 22.16 145.879 22.92 146.379 23.48C146.899 24.02 147.579 24.29 148.419 24.29C149.279 24.29 149.959 24.02 150.459 23.48C150.959 22.92 151.209 22.16 151.209 21.2V12.17H157.119ZM163.435 10.61C162.395 10.61 161.555 10.33 160.915 9.77C160.295 9.19 159.985 8.47 159.985 7.61C159.985 6.73 160.295 6 160.915 5.42C161.555 4.84 162.395 4.55 163.435 4.55C164.455 4.55 165.275 4.84 165.895 5.42C166.535 6 166.855 6.73 166.855 7.61C166.855 8.47 166.535 9.19 165.895 9.77C165.275 10.33 164.455 10.61 163.435 10.61ZM166.345 12.17V29H160.465V12.17H166.345ZM175.274 24.11H182.444V29H168.794V24.35L175.484 17.06H168.854V12.17H182.204V16.82L175.274 24.11ZM202.251 0.439999L194.241 34.79H188.571L196.581 0.439999H202.251ZM202.994 12.08H210.344L216.104 18.65L210.344 25.19H202.994L208.754 18.65L202.994 12.08Z" fill="#696F79"/>
</svg>
